<svg xmlns="http://www.w3.org/2000/svg" viewBox="0 0 199.44 65.24"><defs><style>.cls-1{fill:#fff;}</style></defs><title>App_store</title><g id="Слой_2" data-name="Слой 2"><g id="_1080" data-name="1080"><path d="M8.81,0H190.62a8.82,8.82,0,0,1,8.82,8.82V56.42a8.82,8.82,0,0,1-8.82,8.82H8.81A8.81,8.81,0,0,1,0,56.42V8.81A8.81,8.81,0,0,1,8.81,0Z"/><path class="cls-1" d="M52,43.12a32.68,32.68,0,0,1-2.92,5.46c-1.9,2.88-4.57,6.48-7.88,6.51-3,0-3.7-1.92-7.7-1.89s-4.83,1.92-7.77,1.9c-3.31,0-5.85-3.28-7.74-6.17-5.31-8.07-5.86-17.55-2.59-22.59,2.32-3.58,6-5.67,9.44-5.67s5.72,1.92,8.62,1.92,4.53-1.92,8.59-1.92a11.47,11.47,0,0,1,8.64,4.56C43.11,29.38,44.34,40.22,52,43.12Z"/><path class="cls-1" d="M39,17.44a9.82,9.82,0,0,0,2.19-7.3,10.64,10.64,0,0,0-6.87,3.7A9.11,9.11,0,0,0,32.05,21,9,9,0,0,0,39,17.44Z"/><path class="cls-1" d="M68.17,26.22l-7.6,22.37h3.48l2.27-6.87h7.35L76,48.59h3.57L72,26.22ZM70,29.9c.26,1,.53,2,.89,3.15l2,5.93H67.08l2-6C69.41,32.05,69.7,31,70,29.9Z"/><path class="cls-1" d="M89.41,32A6.34,6.34,0,0,0,84,34.6l-.13-2.22H80.8l0,.28c.09,1.39.13,2.91.13,5.1V55h3.39V47a5.93,5.93,0,0,0,4.62,2,7,7,0,0,0,5.13-2.18,9.25,9.25,0,0,0,2.26-6.51,9,9,0,0,0-2-5.94A6.44,6.44,0,0,0,89.41,32Zm-.84,2.8c3,0,4.37,2.8,4.37,5.56,0,3.58-1.73,5.79-4.5,5.79a4.08,4.08,0,0,1-4-3.14,4.16,4.16,0,0,1-.12-1.09V39.22a5.31,5.31,0,0,1,.1-.84,2.56,2.56,0,0,0,0-.27A4.29,4.29,0,0,1,88.57,34.82Z"/><path class="cls-1" d="M106.84,32a6.33,6.33,0,0,0-5.38,2.58l-.14-2.22H98.23l0,.28c.09,1.39.13,2.91.13,5.1V55h3.38V47a6,6,0,0,0,4.62,2,7,7,0,0,0,5.13-2.18,9.25,9.25,0,0,0,2.27-6.51,9,9,0,0,0-2-5.94A6.43,6.43,0,0,0,106.84,32Zm-.84,2.8c3,0,4.36,2.8,4.36,5.56,0,3.58-1.72,5.79-4.49,5.79a4.09,4.09,0,0,1-4-3.14,4.16,4.16,0,0,1-.12-1.09V39.22a4.41,4.41,0,0,1,.11-.84,2.56,2.56,0,0,1,0-.27A4.28,4.28,0,0,1,106,34.82Z"/><path class="cls-1" d="M128.67,35.7c-3.16-1.22-4.17-2.19-4.17-4,0-1.5,1.19-3,3.84-3a7.65,7.65,0,0,1,4,1l.28.18,1-2.83-.19-.11a9.86,9.86,0,0,0-4.93-1.1c-4.31,0-7.33,2.54-7.33,6.19,0,2.94,1.89,5,5.94,6.47,2.87,1.07,3.94,2.17,3.94,4.06,0,2.13-1.65,3.45-4.3,3.45a9.25,9.25,0,0,1-4.88-1.38l-.29-.19-.91,2.89.17.11a11.52,11.52,0,0,0,5.72,1.47c5.81,0,7.87-3.54,7.87-6.58S132.72,37.3,128.67,35.7Z"/><path class="cls-1" d="M140.47,28.52l-3.32,1.05v2.81h-2.43v2.7h2.43v8.28c0,2,.38,3.41,1.17,4.3a4.32,4.32,0,0,0,3.27,1.28,8.07,8.07,0,0,0,2.62-.4l.19-.07-.16-2.71-.33.1a5.16,5.16,0,0,1-1.57.18c-1.31,0-1.87-.83-1.87-2.77V35.08h4.08v-2.7h-4.08Z"/><path class="cls-1" d="M152.93,32c-4.73,0-8,3.53-8,8.59s3.2,8.33,7.78,8.33h0c3.87,0,8-2.7,8-8.62a8.57,8.57,0,0,0-2.16-6A7.55,7.55,0,0,0,152.93,32Zm-.09,2.67c3,0,4.42,3,4.42,5.73,0,3.39-1.89,5.85-4.49,5.85h0c-2.57,0-4.43-2.42-4.43-5.75C148.31,37.62,149.71,34.69,152.84,34.69Z"/><path class="cls-1" d="M171.11,32.18l-.2,0a3,3,0,0,0-.84-.11,4.83,4.83,0,0,0-4.25,2.72l-.1-2.36h-3l0,.28c.09,1.34.12,2.84.12,4.87l0,11.06h3.39V40a8.89,8.89,0,0,1,.09-1.31c.38-2.07,1.78-3.41,3.56-3.41a8.17,8.17,0,0,1,.91.06l.36,0Z"/><path class="cls-1" d="M178.72,32c-4.51,0-7.65,3.6-7.65,8.75,0,5,3.13,8.17,8,8.17a13,13,0,0,0,5.36-1l.2-.09L184,45.27l-.28.11a10.39,10.39,0,0,1-4.24.76,4.7,4.7,0,0,1-5.07-4.9l10.92,0,.05-.22a7.36,7.36,0,0,0,.1-1.41C185.43,36.11,183.67,32,178.72,32Zm-.23,2.57a3.35,3.35,0,0,1,2.49.95,4.82,4.82,0,0,1,1.16,3.15h-7.72C174.74,36.71,176,34.56,178.49,34.56Z"/><path class="cls-1" d="M60.57,10.94a25.67,25.67,0,0,1,3.24-.21A7.21,7.21,0,0,1,68.58,12a4.63,4.63,0,0,1,1.67,3.81A5.36,5.36,0,0,1,68.56,20a7.85,7.85,0,0,1-5.22,1.52,24.53,24.53,0,0,1-2.77-.12Zm1.53,9.38a11.59,11.59,0,0,0,1.54.06c3.25,0,5-1.63,5-4.49,0-2.53-1.55-4.08-4.77-4.08A9.56,9.56,0,0,0,62.1,12Z"/><path class="cls-1" d="M75.7,21.56a3.82,3.82,0,0,1-4-3.91,3.93,3.93,0,0,1,4.19-4,3.79,3.79,0,0,1,4.06,3.9,3.93,3.93,0,0,1-4.19,4Zm0-1a2.7,2.7,0,0,0,2.56-3,2.58,2.58,0,1,0-5.11,0,2.66,2.66,0,0,0,2.53,2.92Z"/><path class="cls-1" d="M82.33,13.79l1.14,3.85c.22.84.45,1.64.61,2.43h0c.19-.77.47-1.59.75-2.42l1.38-3.86h1.29l1.31,3.8c.31.89.56,1.71.75,2.48h0a21.23,21.23,0,0,1,.65-2.47l1.2-3.81H93l-2.72,7.6h-1.4l-1.29-3.63a24.14,24.14,0,0,1-.75-2.51h0a22.7,22.7,0,0,1-.76,2.53L84.7,21.39H83.31l-2.55-7.6Z"/><path class="cls-1" d="M94.56,15.84c0-.8,0-1.42-.07-2.05h1.37L95.94,15h0a3.19,3.19,0,0,1,2.79-1.42,2.89,2.89,0,0,1,3,3.24v4.54h-1.53V17c0-1.23-.51-2.26-2-2.26a2.17,2.17,0,0,0-2.05,1.41,1.83,1.83,0,0,0-.11.64v4.59H94.56Z"/><path class="cls-1" d="M104.25,10.24h1.54V21.39h-1.54Z"/><path class="cls-1" d="M111.77,21.56a3.82,3.82,0,0,1-4-3.91,3.93,3.93,0,0,1,4.19-4,3.79,3.79,0,0,1,4.07,3.9,3.93,3.93,0,0,1-4.19,4Zm0-1a2.7,2.7,0,0,0,2.57-3,2.65,2.65,0,0,0-2.53-2.91c-1.8,0-2.58,1.51-2.58,3a2.65,2.65,0,0,0,2.53,2.92Z"/><path class="cls-1" d="M123.86,19.57a11.11,11.11,0,0,0,.13,1.82h-1.38l-.14-1h0a3.25,3.25,0,0,1-2.59,1.13,2.3,2.3,0,0,1-2.58-2.18c0-1.84,1.82-2.84,5.08-2.83v-.16c0-.62-.19-1.77-1.92-1.75a4.46,4.46,0,0,0-2.22.56l-.35-.93a6,6,0,0,1,2.8-.66c2.6,0,3.22,1.59,3.22,3.11Zm-1.5-2.06c-1.67,0-3.57.24-3.57,1.71a1.28,1.28,0,0,0,1.43,1.32,2.13,2.13,0,0,0,2.07-1.27,1.13,1.13,0,0,0,.07-.44Z"/><path class="cls-1" d="M133.62,10.24v9.18c0,.68,0,1.45.07,2h-1.38l-.07-1.32h0a3.17,3.17,0,0,1-2.87,1.49,3.62,3.62,0,0,1-3.63-3.86,3.8,3.8,0,0,1,3.79-4.09,2.9,2.9,0,0,1,2.55,1.15h0V10.24Zm-1.54,6.64a2.05,2.05,0,0,0-.07-.6,2.21,2.21,0,0,0-2.21-1.58c-1.59,0-2.53,1.25-2.53,2.92s.85,2.83,2.49,2.83A2.28,2.28,0,0,0,132,18.8a1.94,1.94,0,0,0,.07-.6Z"/><path class="cls-1" d="M143.3,21.56a3.81,3.81,0,0,1-4-3.91,3.92,3.92,0,0,1,4.18-4,3.79,3.79,0,0,1,4.07,3.9,3.93,3.93,0,0,1-4.19,4Zm.06-1a2.7,2.7,0,0,0,2.56-3,2.58,2.58,0,1,0-5.11,0,2.66,2.66,0,0,0,2.53,2.92Z"/><path class="cls-1" d="M149.45,15.84c0-.8,0-1.42-.07-2.05h1.36l.09,1.24h0a3.2,3.2,0,0,1,2.79-1.42,2.9,2.9,0,0,1,3,3.24v4.54H155.1V17c0-1.23-.5-2.26-1.95-2.26a2.18,2.18,0,0,0-2.06,1.41,1.83,1.83,0,0,0-.11.64v4.59h-1.53Z"/><path class="cls-1" d="M164.68,12v1.82h2.2v1.05h-2.2v4.1c0,.94.3,1.47,1.16,1.47a3.37,3.37,0,0,0,.89-.09l.06,1.05a4.34,4.34,0,0,1-1.36.19,2.31,2.31,0,0,1-1.65-.58,2.74,2.74,0,0,1-.6-2V14.84h-1.31V13.79h1.31v-1.4Z"/><path class="cls-1" d="M168.61,10.24h1.54V15h0a2.61,2.61,0,0,1,1.1-1,3.24,3.24,0,0,1,1.57-.4c1.13,0,3,.63,3,3.26v4.52h-1.54V17c0-1.24-.5-2.26-1.95-2.26a2.22,2.22,0,0,0-2.06,1.38,1.51,1.51,0,0,0-.1.66v4.59h-1.54Z"/><path class="cls-1" d="M179.17,17.82a2.57,2.57,0,0,0,2.88,2.64,6.27,6.27,0,0,0,2.34-.38l.28,1a7.6,7.6,0,0,1-2.83.49c-2.59,0-4.16-1.56-4.16-3.84a3.87,3.87,0,0,1,4-4.11,3.33,3.33,0,0,1,3.48,3.58,2.85,2.85,0,0,1-.06.66Zm4.48-1a2,2,0,0,0-2.11-2.24,2.39,2.39,0,0,0-2.35,2.24Z"/></g></g></svg>