<svg xmlns="http://www.w3.org/2000/svg" xmlns:xlink="http://www.w3.org/1999/xlink" viewBox="0 0 195.47 63.94"><defs><style>.cls-1{fill:none;}.cls-2{fill:#1e1e1c;}.cls-3{clip-path:url(#clip-path);}.cls-4{fill:url(#linear-gradient);}.cls-5{fill:url(#linear-gradient-2);}.cls-6{fill:url(#linear-gradient-3);}.cls-7{fill:url(#linear-gradient-4);}.cls-8{fill:#f9f9f9;}.cls-9{fill:#fcfcfc;}</style><clipPath id="clip-path"><path class="cls-1" d="M42.36,28.15l-8.81-5.09-17-9.82c-1-.54-1.89-.21-1.89.92v40c0,.85.67,1.22,1.49.75l17.4-10,8.81-5.08,8.47-4.9c1-.57.9-1.36.06-1.81S42.36,28.15,42.36,28.15Z"/></clipPath><linearGradient id="linear-gradient" x1="25.58" y1="12.31" x2="25.58" y2="55.61" gradientUnits="userSpaceOnUse"><stop offset="0" stop-color="#227bb1"/><stop offset="0.31" stop-color="#4a98b5"/><stop offset="0.77" stop-color="#81c0bc"/><stop offset="1" stop-color="#97cfbe"/></linearGradient><linearGradient id="linear-gradient-2" x1="14.66" y1="23.06" x2="42.36" y2="23.06" gradientUnits="userSpaceOnUse"><stop offset="0" stop-color="#5bbba9"/><stop offset="1" stop-color="#e5e799"/></linearGradient><linearGradient id="linear-gradient-3" x1="28.51" y1="33.96" x2="28.51" y2="55.77" gradientUnits="userSpaceOnUse"><stop offset="0" stop-color="#e33433"/><stop offset="0.16" stop-color="#d43643"/><stop offset="0.72" stop-color="#a23f7a"/><stop offset="1" stop-color="#8e4290"/></linearGradient><linearGradient id="linear-gradient-4" x1="44.46" y1="28.15" x2="44.46" y2="39.78" gradientUnits="userSpaceOnUse"><stop offset="0" stop-color="#f08679"/><stop offset="0.63" stop-color="#f7b374"/><stop offset="1" stop-color="#fbc972"/></linearGradient></defs><title>Google play</title><g id="Слой_2" data-name="Слой 2"><g id="_1080" data-name="1080"><rect class="cls-2" width="195.47" height="63.94" rx="8.64"/><g id="PLAY"><g class="cls-3"><polygon class="cls-4" points="14.66 12.31 14.66 33.96 14.66 55.61 36.5 33.96 14.66 12.31"/><polygon class="cls-5" points="42.36 28.14 33.55 23.06 14.66 12.15 14.66 12.31 36.5 33.96 42.36 28.14"/><polygon class="cls-6" points="14.66 55.61 14.66 55.77 33.55 44.86 42.36 39.77 36.5 33.96 14.66 55.61"/><polygon class="cls-7" points="42.36 28.14 36.5 33.96 42.36 39.77 52.43 33.96 42.36 28.14"/></g></g><path class="cls-8" d="M152.12,42.42a5.47,5.47,0,0,1-2.24-.45,4.25,4.25,0,0,1-1.71-1.39H148a15.39,15.39,0,0,1,.14,2.09v5.18h-1.9V29.6h1.55l.26,1.73h.09a4.47,4.47,0,0,1,1.71-1.5,5.34,5.34,0,0,1,2.24-.46A4.67,4.67,0,0,1,156,31.08a7.56,7.56,0,0,1,1.36,4.81A7.52,7.52,0,0,1,156,40.71,4.68,4.68,0,0,1,152.12,42.42ZM151.85,31a3.37,3.37,0,0,0-2.79,1.07,5.49,5.49,0,0,0-.89,3.4v.43a6.27,6.27,0,0,0,.89,3.79,3.33,3.33,0,0,0,2.83,1.15,3,3,0,0,0,2.56-1.32,6.26,6.26,0,0,0,.93-3.65,6,6,0,0,0-.93-3.61A3,3,0,0,0,151.85,31Z"/><path class="cls-8" d="M161.77,42.19h-1.91V24.32h1.91Z"/><path class="cls-8" d="M172.73,42.19l-.38-1.79h-.09A5.29,5.29,0,0,1,170.38,42a5.69,5.69,0,0,1-2.33.41,4.23,4.23,0,0,1-2.94-1,3.51,3.51,0,0,1-1.06-2.75q0-3.81,6.1-4l2.14-.07v-.78a3.22,3.22,0,0,0-.64-2.19,2.61,2.61,0,0,0-2-.71,8.32,8.32,0,0,0-3.56,1l-.59-1.45a8.76,8.76,0,0,1,2-.8,8.89,8.89,0,0,1,2.22-.28,4.83,4.83,0,0,1,3.34,1,4.17,4.17,0,0,1,1.09,3.21v8.59Zm-4.3-1.34a3.83,3.83,0,0,0,2.79-1,3.6,3.6,0,0,0,1-2.73V36l-1.91.08a7,7,0,0,0-3.28.71,2.13,2.13,0,0,0-1,2,2,2,0,0,0,.62,1.57A2.61,2.61,0,0,0,168.43,40.85Z"/><path class="cls-8" d="M175.25,29.6h2.05l2.76,7.18a27.37,27.37,0,0,1,1.12,3.55h.1c.09-.39.3-1,.62-2s1.36-3.86,3.12-8.73h2l-5.42,14.34a7.1,7.1,0,0,1-1.88,3,4,4,0,0,1-2.63.89,7.78,7.78,0,0,1-1.73-.2V46.13a6.93,6.93,0,0,0,1.42.13,2.9,2.9,0,0,0,2.8-2.2l.7-1.8Z"/><path class="cls-8" d="M116.79,30.77a4.44,4.44,0,0,1,1.87,3.56c0,2-1.1,2.87-2.21,3.74a1.86,1.86,0,0,0-.74,1.29,1.45,1.45,0,0,0,.69,1.13l.95.74c1.16,1,2.21,1.87,2.21,3.69,0,2.47-2.4,5-6.93,5-3.82,0-5.66-1.81-5.66-3.76a3.8,3.8,0,0,1,2-3.22,11.32,11.32,0,0,1,5-1.21,2.74,2.74,0,0,1-.79-1.79,2.44,2.44,0,0,1,.26-1c-.29,0-.58.06-.84.06a4.16,4.16,0,0,1-4.37-4.14A4.75,4.75,0,0,1,110,31.27a7.22,7.22,0,0,1,4.72-1.45h5.42l-1.68.95Zm-1.87,11.7a3.7,3.7,0,0,0-.6,0,10.5,10.5,0,0,0-2.77.42,3,3,0,0,0-2.26,2.72c0,1.86,1.81,3.21,4.63,3.21,2.53,0,3.88-1.21,3.88-2.85C117.8,44.6,116.93,43.89,114.92,42.47Zm.77-5a2.67,2.67,0,0,0,.65-1.92c0-1.9-1.13-4.85-3.31-4.85a2.49,2.49,0,0,0-1.85.87,3.11,3.11,0,0,0-.58,1.95c0,1.77,1,4.69,3.3,4.69A2.74,2.74,0,0,0,115.69,37.46Z"/><path class="cls-8" d="M100.21,42.05a6.21,6.21,0,0,1-6.41-6.21,6.51,6.51,0,0,1,6.81-6.39,6.15,6.15,0,0,1,6.28,6.21A6.43,6.43,0,0,1,100.21,42.05Zm3.29-2.13a4.8,4.8,0,0,0,.79-2.92c0-2.32-1.11-6.74-4.37-6.74a3.68,3.68,0,0,0-2.36.9,4,4,0,0,0-1.21,3.21c0,2.6,1.28,6.89,4.47,6.89A3.38,3.38,0,0,0,103.5,39.92Z"/><path class="cls-8" d="M86,42.05a6.22,6.22,0,0,1-6.42-6.21,6.52,6.52,0,0,1,6.81-6.39,6.15,6.15,0,0,1,6.29,6.21A6.43,6.43,0,0,1,86,42.05Zm3.29-2.13A4.8,4.8,0,0,0,90,37c0-2.32-1.11-6.74-4.37-6.74a3.69,3.69,0,0,0-2.37.9,4,4,0,0,0-1.21,3.21c0,2.6,1.29,6.89,4.47,6.89A3.38,3.38,0,0,0,89.25,39.92Z"/><path class="cls-8" d="M77.53,41.63l-3.78.88a29,29,0,0,1-4.36.44c-7.3,0-10.07-5.36-10.07-9.57,0-5.12,3.94-9.88,10.68-9.88a15.34,15.34,0,0,1,4,.55,10.25,10.25,0,0,1,3.49,1.64l-2.19,2.09-.93.21.66-1.06a7.52,7.52,0,0,0-5.65-2.48c-4.18,0-7.33,3.17-7.33,7.8,0,5,3.6,9.65,9.36,9.65a8,8,0,0,0,3.36-.66V37l-4,.21,2.11-1.14h5.61l-.69.66a.6.6,0,0,0-.26.43c0,.24-.06,1-.06,1.27Z"/><path class="cls-8" d="M125.15,40.87c-.87-.08-1.06-.23-1.06-1.27v-15c0-.06,0-.12,0-.17.11-.93.37-1.08,1.19-1.56h-3.78l-2,.95h2V40.19c0,.52-.1.6-.71,1.4h4.68l1-.58C126.05,41,125.6,40.93,125.15,40.87Z"/><path class="cls-8" d="M135.91,41.12c-.29.15-.58.34-.87.47a6.15,6.15,0,0,1-2.55.5,5.63,5.63,0,0,1-3.49-1,6.79,6.79,0,0,1-2.67-5.54,5.94,5.94,0,0,1,6-6.06,5.07,5.07,0,0,1,2.7.73,4.38,4.38,0,0,1,1.84,2.6l-6.17,2.5-2,.15c.65,3.34,2.91,5.28,5.41,5.28a6.71,6.71,0,0,0,3.2-.92Zm-2.47-7.83c.5-.18.76-.34.76-.71a2.61,2.61,0,0,0-2.6-2.26c-1,0-3,.82-3,3.65,0,.45,0,.92.08,1.4Z"/><path class="cls-8" d="M138.44,29.64v1.73h-.21V29.64h-.57v-.18H139v.18Z"/><path class="cls-8" d="M140.8,31.37V29.62h0l-.53,1.75h-.16l-.54-1.75h0v1.75h-.19V29.46h.33l.48,1.54h0l.48-1.54H141v1.91Z"/><path class="cls-9" d="M64.57,18.35H63.26a9.07,9.07,0,0,0-.38-1.54H61a8.43,8.43,0,0,0-.38,1.54H59.36c0-.11.32-1,1-2.63a20.1,20.1,0,0,0,1-2.72h1.55a22.32,22.32,0,0,0,.87,2.68A23.23,23.23,0,0,1,64.57,18.35ZM62.67,16a22.4,22.4,0,0,1-.7-2.29H61.9A24,24,0,0,1,61.18,16Z"/><path class="cls-9" d="M69.86,18.35h-1a10.64,10.64,0,0,0-1.13-1.78,9.72,9.72,0,0,1-1.35-2.32h-.06a14.05,14.05,0,0,1,.1,1.63c0,.67,0,1.5.06,2.47h-1c0-.85.06-1.78.06-2.8s0-1.84-.06-2.55h1.22a7.26,7.26,0,0,0,1,1.74,10.56,10.56,0,0,1,1.24,2.19H69c-.06-.61-.1-1.16-.1-1.64,0-.74,0-1.51,0-2.29h1q-.06,1-.06,2.55C69.8,16.58,69.82,17.51,69.86,18.35Z"/><path class="cls-9" d="M75.81,15.49a3.07,3.07,0,0,1-.74,2,2.62,2.62,0,0,1-2.1.87c-.4,0-1,0-1.67,0,0-.83,0-1.76,0-2.8s0-1.84,0-2.55H73a2.8,2.8,0,0,1,2.15.74A2.56,2.56,0,0,1,75.81,15.49Zm-1.12.18a2,2,0,0,0-.46-1.33,1.72,1.72,0,0,0-1.4-.54,3.5,3.5,0,0,0-.49,0c0,.55,0,1.12,0,1.71s0,1.31.05,1.95a2.32,2.32,0,0,0,.53.05A1.55,1.55,0,0,0,74.27,17,2.11,2.11,0,0,0,74.69,15.67Z"/><path class="cls-9" d="M81.3,18.35H80.08a7.46,7.46,0,0,0-.73-1.79,1,1,0,0,0-.82-.35h-.45q0,1.05,0,2.13H77c0-.83.06-1.76.06-2.8S77,13.71,77,13h2q1.89,0,1.89,1.29a1.44,1.44,0,0,1-1.08,1.42v.07a1.26,1.26,0,0,1,.73.64A14.27,14.27,0,0,1,81.3,18.35Zm-1.54-3.78q0-.81-1.05-.81a3.43,3.43,0,0,0-.68.05c0,.43,0,1,0,1.66h.38C79.32,15.48,79.76,15.18,79.76,14.57Z"/><path class="cls-9" d="M87.18,15.58a2.92,2.92,0,0,1-.77,2.09,2.51,2.51,0,0,1-1.91.83,2.44,2.44,0,0,1-1.81-.76A2.69,2.69,0,0,1,82,15.8a3,3,0,0,1,.77-2.09,2.51,2.51,0,0,1,1.91-.83,2.39,2.39,0,0,1,1.81.76A2.67,2.67,0,0,1,87.18,15.58Zm-1.13.12a2.12,2.12,0,0,0-.44-1.39,1.34,1.34,0,0,0-1.08-.54,1.25,1.25,0,0,0-1,.54,2.14,2.14,0,0,0-.42,1.36,2.14,2.14,0,0,0,.44,1.39,1.35,1.35,0,0,0,1.08.53,1.25,1.25,0,0,0,1-.54A2.13,2.13,0,0,0,86.05,15.7Z"/><path class="cls-9" d="M89.51,18.35H88.34c0-.85.06-1.78.06-2.8s0-1.84-.06-2.55h1.17q-.06,1-.06,2.55C89.45,16.59,89.47,17.52,89.51,18.35Z"/><path class="cls-9" d="M95.46,15.49a3,3,0,0,1-.75,2,2.62,2.62,0,0,1-2.1.87c-.4,0-1,0-1.67,0,0-.83,0-1.76,0-2.8s0-1.84,0-2.55h1.7a2.78,2.78,0,0,1,2.15.74A2.57,2.57,0,0,1,95.46,15.49Zm-1.13.18a2,2,0,0,0-.45-1.33,1.76,1.76,0,0,0-1.41-.54,3.28,3.28,0,0,0-.48,0c0,.55,0,1.12,0,1.71s0,1.31,0,1.95a2.38,2.38,0,0,0,.53.05A1.54,1.54,0,0,0,93.91,17,2.11,2.11,0,0,0,94.33,15.67Z"/><path class="cls-9" d="M103.35,18.35H102a9.07,9.07,0,0,0-.38-1.54H99.77a8,8,0,0,0-.39,1.54H98.14c0-.11.32-1,1-2.63a20.1,20.1,0,0,0,1-2.72h1.55a22.32,22.32,0,0,0,.87,2.68A23.23,23.23,0,0,1,103.35,18.35ZM101.45,16a22.4,22.4,0,0,1-.7-2.29h-.07A24,24,0,0,1,100,16Z"/><path class="cls-9" d="M108.14,14.4a1.59,1.59,0,0,1-.73,1.45,3.18,3.18,0,0,1-1.79.47h-.27c0,.52,0,1.2,0,2h-1.15c0-.79.05-1.72.05-2.8s0-1.83-.05-2.55h2a2.4,2.4,0,0,1,1.32.35A1.21,1.21,0,0,1,108.14,14.4Zm-1.06.23c0-.59-.39-.88-1.17-.88a3.31,3.31,0,0,0-.61.06c0,.52,0,1.11,0,1.76h.24C106.58,15.58,107.08,15.26,107.08,14.63Z"/><path class="cls-9" d="M113.06,14.4a1.59,1.59,0,0,1-.73,1.45,3.15,3.15,0,0,1-1.78.47h-.28c0,.52,0,1.2,0,2h-1.16c0-.79.06-1.72.06-2.8s0-1.83-.06-2.55h2a2.35,2.35,0,0,1,1.31.35A1.21,1.21,0,0,1,113.06,14.4Zm-1.06.23c0-.59-.39-.88-1.16-.88a3.42,3.42,0,0,0-.62.06c0,.52,0,1.11,0,1.76h.23C111.5,15.58,112,15.26,112,14.63Z"/><path class="cls-9" d="M121.11,15.58a3,3,0,0,1-.77,2.09,2.51,2.51,0,0,1-1.91.83,2.42,2.42,0,0,1-1.81-.76,2.69,2.69,0,0,1-.73-1.94,2.92,2.92,0,0,1,.77-2.09,2.51,2.51,0,0,1,1.91-.83,2.4,2.4,0,0,1,1.81.76A2.67,2.67,0,0,1,121.11,15.58ZM120,15.7a2.12,2.12,0,0,0-.44-1.39,1.34,1.34,0,0,0-1.08-.54,1.25,1.25,0,0,0-1,.54,2.14,2.14,0,0,0-.42,1.36,2.14,2.14,0,0,0,.44,1.39,1.34,1.34,0,0,0,1.08.53,1.25,1.25,0,0,0,1-.54A2.13,2.13,0,0,0,120,15.7Z"/><path class="cls-9" d="M126.68,18.35h-1a9.89,9.89,0,0,0-1.13-1.78,9.93,9.93,0,0,1-1.34-2.32h-.07a14.05,14.05,0,0,1,.1,1.63c0,.67,0,1.5.06,2.47h-1c0-.85.06-1.78.06-2.8s0-1.84-.06-2.55h1.22a7.69,7.69,0,0,0,1,1.74,10.08,10.08,0,0,1,1.24,2.19h.07a14.48,14.48,0,0,1-.1-1.64c0-.74,0-1.51-.06-2.29h1q-.06,1-.06,2.55C126.62,16.58,126.64,17.51,126.68,18.35Z"/></g></g></svg>